<svg xmlns="http://www.w3.org/2000/svg" viewBox="0 0 64 64"><defs><style>.cls-1{fill:#999;}.cls-2,.cls-4,.cls-6{fill:none;}.cls-3,.cls-4,.cls-5,.cls-6{stroke:#fff;}.cls-3{stroke-width:2px;}.cls-4{stroke-linecap:round;}.cls-7{fill:#fff;fill-rule:evenodd;}</style></defs><g id="Layer_2" data-name="Layer 2"><g id="Layer_1-2" data-name="Layer 1"><rect class="cls-1" width="64" height="64"/><g id="Layer_2-2" data-name="Layer 2"><g id="monitor"><rect class="cls-2" x="13.37" y="13.37" width="37.27" height="37.27"/><path d="M31,40.29a1.16,1.16,0,0,1,1.59-.4,1.18,1.18,0,0,1,.4.4l4.47,7.76A1.15,1.15,0,0,1,37,49.64a1.17,1.17,0,0,1-.57.16h-9a1.16,1.16,0,0,1-1-1.75Z"/><path class="cls-3" d="M16.45,14.39h31a2.32,2.32,0,0,1,2.3,2.32V38a2.33,2.33,0,0,1-2.3,2.33h-31A2.33,2.33,0,0,1,14.16,38V16.69a2.29,2.29,0,0,1,2.29-2.3Z"/><path class="cls-4" d="M24.79,29.46v3.92l3.79-3.92"/><path class="cls-5" d="M34.27,16.4H18.75A2.59,2.59,0,0,0,16.17,19h0v8.06a2.59,2.59,0,0,0,2.58,2.59h5.93l.17.11v3.46l3.45-3.46.1-.11h5.87a2.59,2.59,0,0,0,2.58-2.59V19a2.58,2.58,0,0,0-2.58-2.59Z"/><path class="cls-6" d="M25.07,20l5.18,3-5.18,3Z"/><path class="cls-4" d="M39.44,17.26h8"/><path class="cls-4" d="M39.44,20.14h8"/><path class="cls-4" d="M39.44,23h8"/><path class="cls-4" d="M39.44,25.9h8"/><path class="cls-4" d="M39.44,28.77h8"/><path class="cls-7" d="M22.46,36.83H50.05v-.58H22.46Zm-.59-.58H20.8v.58h1.08Zm-2.73,0h1.08v.58H19.14Zm-.59,0H13.87v.58h4.7Z"/><path class="cls-4" d="M27.09,50.05H37.43"/></g></g></g></g></svg>